<svg width="204" height="201" viewBox="0 0 204 201" fill="none" xmlns="http://www.w3.org/2000/svg">
<path d="M19.6327 93.1038C15.3382 75.6479 15.5647 56.0002 15.765 39.2779C46.2013 43.9846 76.7682 39.1643 106.786 16.6001L101.917 0C72.2733 22.2848 39.1192 29.3842 9.90251 22.0665L0.163613 19.6215V29.6898C0.163613 32.6413 0.128772 35.7675 0.0852167 39.0334C-0.0802924 52.8566 -0.271937 69.6488 2.31523 86.0917C7.8293 88.5717 13.6047 90.9294 19.6327 93.1038Z" fill="#36C688"/>
<path d="M188.234 39.2691C188.408 54.0791 188.609 71.1857 185.665 87.0348C191.649 84.3627 197.329 81.516 202.686 78.5819C204.219 64.6103 204.053 50.7608 203.914 39.0334C203.879 35.7762 203.836 32.6413 203.836 29.6898V19.6215L194.097 22.0665C164.88 29.3842 131.56 22.2936 101.917 0L97.5614 16.5914C127.58 39.1556 157.798 43.9846 188.234 39.2691Z" fill="#36C688"/>
<path d="M145.812 149.864C133.372 161.067 117.762 172.882 97.1955 188.452L101.917 201C133.878 176.803 157.763 160.709 175.089 141.402C165.899 144.712 156.134 147.585 145.812 149.864Z" fill="#36C688"/>
<path d="M192.128 117.222C195.229 111.188 197.538 104.718 199.245 98.0462C193.13 101.024 186.675 103.836 179.898 106.438C179.018 108.429 178.051 110.376 176.988 112.245C173.826 117.79 170.446 122.863 166.718 127.701C175.769 124.592 184.245 121.047 192.128 117.222Z" fill="#36C688"/>
<path d="M16.4619 125.116C24.3889 128.103 32.7689 130.784 41.567 133.01C36.0965 126.592 31.3577 119.877 27.0284 112.297C20.2686 110.263 13.5437 107.931 6.87111 105.285C8.58718 110.42 10.7301 115.389 13.3869 120.052C14.38 121.772 15.4079 123.457 16.4619 125.116Z" fill="#36C688"/>
<path d="M34.816 147.663C51.4889 164.342 73.458 179.457 101.917 201L106.804 188.452C88.2406 174.401 73.7107 163.399 61.9073 153.156C52.813 151.872 43.7884 150.038 34.816 147.663Z" fill="#36C688"/>
<path d="M142.728 91.0342C142.728 110.987 129.435 120.375 114.295 120.375H71.8203V61.6937H114.295C129.435 61.6937 142.728 71.0809 142.728 91.0342ZM127.675 91.0342C127.675 76.7831 119.984 74.3555 108.607 74.3555H86.8643V107.722H108.607C119.984 107.713 127.675 105.285 127.675 91.0342Z" fill="#36C688"/>
</svg>
